<svg width="562" height="196" viewBox="0 0 562 196" fill="none" xmlns="http://www.w3.org/2000/svg">
<g filter="url(#filter0_d_1_106)">
<path d="M553 0C555.761 1.48179e-06 558 2.23858 558 5V93C558 93.5523 557.55 93.9982 556.998 94.017C541.446 94.5449 529 107.319 529 123C529 138.681 541.446 151.455 556.998 151.983C557.55 152.002 558 152.448 558 153V183C558 185.761 555.761 188 553 188H495.493C495.219 188 495 187.774 495 187.5C495 175.074 484.926 165 472.5 165C460.074 165 450 175.074 450 187.5C450 187.774 449.781 188 449.507 188H399.493C399.219 188 399 187.774 399 187.5C399 175.074 388.926 165 376.5 165C364.074 165 354 175.074 354 187.5C354 187.774 353.781 188 353.507 188H303.493C303.219 188 303 187.774 303 187.5C303 175.074 292.926 165 280.5 165C268.074 165 258 175.074 258 187.5C258 187.774 257.781 188 257.507 188H207.493C207.219 188 207 187.774 207 187.5C207 175.074 196.926 165 184.5 165C172.074 165 162 175.074 162 187.5C162 187.774 161.781 188 161.507 188H111.493C111.219 188 111 187.774 111 187.5C111 175.074 100.926 165 88.5 165C76.0736 165 66 175.074 66 187.5C66 187.774 65.7812 188 65.5068 188H9C6.23858 188 4 185.761 4 183V153C4 152.448 4.44979 152.002 5.00176 151.983C20.5542 151.455 33 138.681 33 123C33 107.319 20.5542 94.5449 5.00176 94.017C4.44979 93.9982 4 93.5523 4 93V5C4 2.23858 6.23858 8.75787e-08 9 0H553Z" fill="#F4E4BA"/>
</g>
<line x1="41" y1="123.5" x2="521" y2="123.5" stroke="black" stroke-opacity="0.5" stroke-width="3" stroke-dasharray="6 6"/>
<path d="M44.418 38.3867C44.9518 38.3867 45.3294 38.4844 45.5508 38.6797C45.7721 38.875 45.8828 39.2005 45.8828 39.6562V44.1484C45.8828 44.6042 45.7721 44.9297 45.5508 45.125C45.3294 45.3203 44.9518 45.418 44.418 45.418C43.9232 45.418 43.5846 45.2487 43.4023 44.9102C42.7773 43.7253 41.8984 42.8268 40.7656 42.2148C39.6328 41.5898 38.3438 41.2773 36.8984 41.2773C35.4661 41.2773 34.3529 41.6094 33.5586 42.2734C32.7773 42.9375 32.3867 43.8294 32.3867 44.9492C32.3867 45.4831 32.5234 45.9323 32.7969 46.2969C33.0703 46.6615 33.4609 46.974 33.9688 47.2344C34.4245 47.4688 34.9583 47.6641 35.5703 47.8203C36.1823 47.9635 37.0026 48.1328 38.0312 48.3281C39.151 48.5495 40.0365 48.7383 40.6875 48.8945C41.3516 49.0378 42.0026 49.2396 42.6406 49.5C43.9427 50.0339 44.9583 50.7826 45.6875 51.7461C46.4297 52.6966 46.8008 53.9857 46.8008 55.6133C46.8008 56.9674 46.4818 58.1589 45.8438 59.1875C45.2057 60.2031 44.2617 60.9974 43.0117 61.5703C41.7747 62.1432 40.2839 62.4297 38.5391 62.4297C37.237 62.4297 36.026 62.1953 34.9062 61.7266C33.7995 61.2448 32.8359 60.5482 32.0156 59.6367V61.1602C32.0156 61.6159 31.9049 61.9414 31.6836 62.1367C31.4622 62.332 31.0846 62.4297 30.5508 62.4297C30.0169 62.4297 29.6393 62.332 29.418 62.1367C29.1966 61.9414 29.0859 61.6159 29.0859 61.1602V55.3008C29.0859 54.8451 29.1966 54.5195 29.418 54.3242C29.6393 54.1289 30.0169 54.0312 30.5508 54.0312C31.1107 54.0312 31.4883 54.3047 31.6836 54.8516C32.2174 56.362 33.0638 57.5208 34.2227 58.3281C35.3945 59.1354 36.8333 59.5391 38.5391 59.5391C40.2057 59.5391 41.4818 59.181 42.3672 58.4648C43.2656 57.7487 43.7148 56.7982 43.7148 55.6133C43.7148 54.793 43.5065 54.1289 43.0898 53.6211C42.6862 53.1003 42.0938 52.6706 41.3125 52.332C40.8177 52.1107 40.2773 51.9349 39.6914 51.8047C39.1055 51.6615 38.3047 51.4857 37.2891 51.2773C36.2214 51.069 35.3229 50.8737 34.5938 50.6914C33.8776 50.5091 33.2135 50.2812 32.6016 50.0078C31.5599 49.5391 30.7461 48.9076 30.1602 48.1133C29.5872 47.306 29.3008 46.2513 29.3008 44.9492C29.3008 43.6081 29.6198 42.4427 30.2578 41.4531C30.9089 40.4635 31.8073 39.7083 32.9531 39.1875C34.112 38.6536 35.4271 38.3867 36.8984 38.3867C38.0443 38.3867 39.151 38.6081 40.2188 39.0508C41.2865 39.4935 42.1979 40.0924 42.9531 40.8477V39.6562C42.9531 39.2005 43.0638 38.875 43.2852 38.6797C43.5065 38.4844 43.8841 38.3867 44.418 38.3867ZM56.2148 36.375C56.6576 36.375 56.9701 36.4792 57.1523 36.6875C57.3477 36.8828 57.4453 37.2214 57.4453 37.7031V47.4297C58.2917 46.1667 59.2682 45.2031 60.375 44.5391C61.4948 43.862 62.6992 43.5234 63.9883 43.5234C65.1732 43.5234 66.2018 43.7839 67.0742 44.3047C67.9466 44.8125 68.6172 45.5482 69.0859 46.5117C69.5547 47.4753 69.7891 48.6016 69.7891 49.8906V59.3438H71.3906C71.8333 59.3438 72.1458 59.4479 72.3281 59.6562C72.5234 59.8516 72.6211 60.1901 72.6211 60.6719C72.6211 61.1536 72.5234 61.4987 72.3281 61.707C72.1458 61.9023 71.8333 62 71.3906 62H65.0625C64.6198 62 64.3008 61.9023 64.1055 61.707C63.9232 61.4987 63.832 61.1536 63.832 60.6719C63.832 60.1901 63.9232 59.8516 64.1055 59.6562C64.3008 59.4479 64.6198 59.3438 65.0625 59.3438H66.8594V50.1836C66.8594 49.0247 66.5924 48.1068 66.0586 47.4297C65.5247 46.7526 64.737 46.4141 63.6953 46.4141C62.5885 46.4141 61.5534 46.7331 60.5898 47.3711C59.6393 48.0091 58.8776 48.888 58.3047 50.0078C57.7318 51.1276 57.4453 52.3776 57.4453 53.7578V59.3438H59.2422C59.6849 59.3438 59.9974 59.4479 60.1797 59.6562C60.375 59.8516 60.4727 60.1901 60.4727 60.6719C60.4727 61.1536 60.375 61.4987 60.1797 61.707C59.9974 61.9023 59.6849 62 59.2422 62H52.9141C52.4714 62 52.1523 61.9023 51.957 61.707C51.7747 61.4987 51.6836 61.1536 51.6836 60.6719C51.6836 60.1901 51.7747 59.8516 51.957 59.6562C52.1523 59.4479 52.4714 59.3438 52.9141 59.3438H54.5156V39.0312H52.7188C52.276 39.0312 51.957 38.9336 51.7617 38.7383C51.5794 38.5299 51.4883 38.1849 51.4883 37.7031C51.4883 37.2214 51.5794 36.8828 51.7617 36.6875C51.957 36.4792 52.276 36.375 52.7188 36.375H56.2148ZM86.6641 43.9531C87.1068 43.9531 87.4193 44.0573 87.6016 44.2656C87.7969 44.4609 87.8945 44.7995 87.8945 45.2812V59.3438H94.1641C94.6068 59.3438 94.9193 59.4479 95.1016 59.6562C95.2969 59.8516 95.3945 60.1901 95.3945 60.6719C95.3945 61.1536 95.2969 61.4987 95.1016 61.707C94.9193 61.9023 94.6068 62 94.1641 62H78.8516C78.4089 62 78.0898 61.9023 77.8945 61.707C77.7122 61.4987 77.6211 61.1536 77.6211 60.6719C77.6211 60.1901 77.7122 59.8516 77.8945 59.6562C78.0898 59.4479 78.4089 59.3438 78.8516 59.3438H84.9648V46.6094H80.0234C79.5807 46.6094 79.2617 46.5117 79.0664 46.3164C78.8841 46.1081 78.793 45.763 78.793 45.2812C78.793 44.7995 78.8841 44.4609 79.0664 44.2656C79.2617 44.0573 79.5807 43.9531 80.0234 43.9531H86.6641ZM86.0391 35.3789C86.7552 35.3789 87.2435 35.4766 87.5039 35.6719C87.7643 35.8542 87.8945 36.1797 87.8945 36.6484V39.1875C87.8945 39.6562 87.7643 39.9883 87.5039 40.1836C87.2435 40.3659 86.7552 40.457 86.0391 40.457C85.3229 40.457 84.8346 40.3659 84.5742 40.1836C84.3138 39.9883 84.1836 39.6562 84.1836 39.1875V36.6484C84.1836 36.1797 84.3138 35.8542 84.5742 35.6719C84.8346 35.4766 85.3229 35.3789 86.0391 35.3789ZM113.578 36.2773C115.323 36.2773 117.055 36.6094 118.773 37.2734C119.398 37.5078 119.711 37.9375 119.711 38.5625C119.711 38.7057 119.691 38.875 119.652 39.0703C119.47 39.8125 119.145 40.1836 118.676 40.1836C118.533 40.1836 118.376 40.151 118.207 40.0859C116.553 39.4479 115.01 39.1289 113.578 39.1289C110.948 39.1289 109.633 40.5417 109.633 43.3672V45.5156H116.391C116.833 45.5156 117.146 45.6198 117.328 45.8281C117.523 46.0234 117.621 46.362 117.621 46.8438C117.621 47.3255 117.523 47.6706 117.328 47.8789C117.146 48.0742 116.833 48.1719 116.391 48.1719H109.633V59.3438H116.391C116.833 59.3438 117.146 59.4479 117.328 59.6562C117.523 59.8516 117.621 60.1901 117.621 60.6719C117.621 61.1536 117.523 61.4987 117.328 61.707C117.146 61.9023 116.833 62 116.391 62H102.836C102.393 62 102.074 61.9023 101.879 61.707C101.697 61.4987 101.605 61.1536 101.605 60.6719C101.605 60.1901 101.697 59.8516 101.879 59.6562C102.074 59.4479 102.393 59.3438 102.836 59.3438H106.703V48.1719H102.836C102.393 48.1719 102.074 48.0742 101.879 47.8789C101.697 47.6706 101.605 47.3255 101.605 46.8438C101.605 46.362 101.697 46.0234 101.879 45.8281C102.074 45.6198 102.393 45.5156 102.836 45.5156H106.703V43.1133C106.703 40.9648 107.302 39.2917 108.5 38.0938C109.711 36.8828 111.404 36.2773 113.578 36.2773ZM134.105 43.5234C135.993 43.5234 137.602 43.9076 138.93 44.6758C140.271 45.431 141.299 46.4857 142.016 47.8398C142.732 49.181 143.142 50.7305 143.246 52.4883C143.246 52.931 143.148 53.2435 142.953 53.4258C142.771 53.6081 142.458 53.6992 142.016 53.6992H127.875C127.966 55.6393 128.539 57.1107 129.594 58.1133C130.661 59.1029 132.165 59.5977 134.105 59.5977C135.303 59.5977 136.488 59.4479 137.66 59.1484C138.832 58.8359 139.861 58.4258 140.746 57.918C140.967 57.8008 141.169 57.7422 141.352 57.7422C141.807 57.7422 142.178 58.0872 142.465 58.7773C142.582 59.0508 142.641 59.2982 142.641 59.5195C142.641 60.0404 142.354 60.444 141.781 60.7305C140.779 61.2383 139.594 61.6484 138.227 61.9609C136.859 62.2734 135.486 62.4297 134.105 62.4297C132.139 62.4297 130.46 62.0521 129.066 61.2969C127.673 60.5417 126.612 59.4544 125.883 58.0352C125.154 56.6159 124.789 54.9297 124.789 52.9766C124.789 51.1146 125.186 49.4674 125.98 48.0352C126.775 46.6029 127.875 45.4961 129.281 44.7148C130.688 43.9206 132.296 43.5234 134.105 43.5234ZM134.105 46.3555C132.504 46.3555 131.176 46.7656 130.121 47.5859C129.079 48.3932 128.396 49.5195 128.07 50.9648H140.004C139.73 49.4674 139.099 48.3281 138.109 47.5469C137.133 46.7526 135.798 46.3555 134.105 46.3555ZM160.121 43.5234C161.306 43.5234 162.335 43.7839 163.207 44.3047C164.079 44.8125 164.75 45.5482 165.219 46.5117C165.688 47.4753 165.922 48.6016 165.922 49.8906V59.3438H167.523C167.966 59.3438 168.279 59.4479 168.461 59.6562C168.656 59.8516 168.754 60.1901 168.754 60.6719C168.754 61.1536 168.656 61.4987 168.461 61.707C168.279 61.9023 167.966 62 167.523 62H161.195C160.753 62 160.434 61.9023 160.238 61.707C160.056 61.4987 159.965 61.1536 159.965 60.6719C159.965 60.1901 160.056 59.8516 160.238 59.6562C160.434 59.4479 160.753 59.3438 161.195 59.3438H162.992V50.1836C162.992 49.0247 162.725 48.1068 162.191 47.4297C161.658 46.7526 160.87 46.4141 159.828 46.4141C158.721 46.4141 157.686 46.7331 156.723 47.3711C155.772 48.0091 155.01 48.888 154.438 50.0078C153.865 51.1276 153.578 52.3776 153.578 53.7578V59.3438H155.375C155.818 59.3438 156.13 59.4479 156.312 59.6562C156.508 59.8516 156.605 60.1901 156.605 60.6719C156.605 61.1536 156.508 61.4987 156.312 61.707C156.13 61.9023 155.818 62 155.375 62H149.047C148.604 62 148.285 61.9023 148.09 61.707C147.908 61.4987 147.816 61.1536 147.816 60.6719C147.816 60.1901 147.908 59.8516 148.09 59.6562C148.285 59.4479 148.604 59.3438 149.047 59.3438H150.648V46.6094H148.656C148.214 46.6094 147.895 46.5117 147.699 46.3164C147.517 46.1081 147.426 45.763 147.426 45.2812C147.426 44.7995 147.517 44.4609 147.699 44.2656C147.895 44.0573 148.214 43.9531 148.656 43.9531H152.152C152.595 43.9531 152.908 44.0573 153.09 44.2656C153.285 44.4609 153.383 44.7995 153.383 45.2812V47.625C154.242 46.2969 155.245 45.2812 156.391 44.5781C157.549 43.875 158.793 43.5234 160.121 43.5234ZM180.824 43.5234C182.1 43.5234 183.279 43.8099 184.359 44.3828C185.44 44.9557 186.391 45.776 187.211 46.8438V45.2812C187.211 44.7995 187.302 44.4609 187.484 44.2656C187.68 44.0573 187.999 43.9531 188.441 43.9531H191.547C191.99 43.9531 192.302 44.0573 192.484 44.2656C192.68 44.4609 192.777 44.7995 192.777 45.2812C192.777 45.763 192.68 46.1081 192.484 46.3164C192.302 46.5117 191.99 46.6094 191.547 46.6094H189.945V62.5859C189.945 64.1354 189.613 65.4635 188.949 66.5703C188.298 67.6901 187.348 68.543 186.098 69.1289C184.848 69.7148 183.344 70.0078 181.586 70.0078C180.336 70.0078 179.073 69.8971 177.797 69.6758C176.521 69.4674 175.329 69.1615 174.223 68.7578C173.715 68.5755 173.461 68.2305 173.461 67.7227C173.461 67.5143 173.513 67.2539 173.617 66.9414C173.852 66.2253 174.223 65.8672 174.73 65.8672C174.874 65.8672 175.017 65.8932 175.16 65.9453C176.176 66.3099 177.243 66.5964 178.363 66.8047C179.483 67.013 180.557 67.1172 181.586 67.1172C183.383 67.1172 184.737 66.6875 185.648 65.8281C186.56 64.9818 187.016 63.8164 187.016 62.332V58.4062C185.401 60.4375 183.337 61.4531 180.824 61.4531C179.21 61.4531 177.764 61.0951 176.488 60.3789C175.212 59.6497 174.21 58.6081 173.48 57.2539C172.751 55.8997 172.387 54.3112 172.387 52.4883C172.387 50.6654 172.751 49.0768 173.48 47.7227C174.21 46.3685 175.212 45.3333 176.488 44.6172C177.764 43.888 179.21 43.5234 180.824 43.5234ZM181.02 46.4141C179.861 46.4141 178.865 46.6745 178.031 47.1953C177.198 47.7031 176.56 48.4193 176.117 49.3438C175.688 50.2552 175.473 51.3034 175.473 52.4883C175.473 53.6732 175.688 54.7279 176.117 55.6523C176.56 56.5638 177.198 57.2799 178.031 57.8008C178.865 58.3086 179.861 58.5625 181.02 58.5625C182.178 58.5625 183.207 58.3216 184.105 57.8398C185.017 57.3581 185.727 56.6615 186.234 55.75C186.755 54.8255 187.016 53.7383 187.016 52.4883C187.016 51.2383 186.755 50.1576 186.234 49.2461C185.727 48.3216 185.017 47.6185 184.105 47.1367C183.207 46.6549 182.178 46.4141 181.02 46.4141ZM239.066 38.8164C239.509 38.8164 239.822 38.9206 240.004 39.1289C240.199 39.3242 240.297 39.6628 240.297 40.1445C240.297 40.6263 240.199 40.9714 240.004 41.1797C239.822 41.375 239.509 41.4727 239.066 41.4727H237.66V59.3438H239.066C239.509 59.3438 239.822 59.4479 240.004 59.6562C240.199 59.8516 240.297 60.1901 240.297 60.6719C240.297 61.1536 240.199 61.4987 240.004 61.707C239.822 61.9023 239.509 62 239.066 62H232.934C232.491 62 232.172 61.9023 231.977 61.707C231.794 61.4987 231.703 61.1536 231.703 60.6719C231.703 60.1901 231.794 59.8516 231.977 59.6562C232.172 59.4479 232.491 59.3438 232.934 59.3438H234.73V51.375H225.004V59.3438H226.801C227.243 59.3438 227.556 59.4479 227.738 59.6562C227.934 59.8516 228.031 60.1901 228.031 60.6719C228.031 61.1536 227.934 61.4987 227.738 61.707C227.556 61.9023 227.243 62 226.801 62H220.668C220.225 62 219.906 61.9023 219.711 61.707C219.529 61.4987 219.438 61.1536 219.438 60.6719C219.438 60.1901 219.529 59.8516 219.711 59.6562C219.906 59.4479 220.225 59.3438 220.668 59.3438H222.074V41.4727H220.668C220.225 41.4727 219.906 41.375 219.711 41.1797C219.529 40.9714 219.438 40.6263 219.438 40.1445C219.438 39.6628 219.529 39.3242 219.711 39.1289C219.906 38.9206 220.225 38.8164 220.668 38.8164H226.801C227.243 38.8164 227.556 38.9206 227.738 39.1289C227.934 39.3242 228.031 39.6628 228.031 40.1445C228.031 40.6263 227.934 40.9714 227.738 41.1797C227.556 41.375 227.243 41.4727 226.801 41.4727H225.004V48.7188H234.73V41.4727H232.934C232.491 41.4727 232.172 41.375 231.977 41.1797C231.794 40.9714 231.703 40.6263 231.703 40.1445C231.703 39.6628 231.794 39.3242 231.977 39.1289C232.172 38.9206 232.491 38.8164 232.934 38.8164H239.066ZM253.852 43.5234C255.635 43.5234 257.243 43.9271 258.676 44.7344C260.108 45.5417 261.228 46.668 262.035 48.1133C262.855 49.5456 263.266 51.1667 263.266 52.9766C263.266 54.7865 262.855 56.4141 262.035 57.8594C261.228 59.2917 260.108 60.4115 258.676 61.2188C257.243 62.026 255.635 62.4297 253.852 62.4297C252.068 62.4297 250.46 62.026 249.027 61.2188C247.595 60.4115 246.469 59.2917 245.648 57.8594C244.841 56.4141 244.438 54.7865 244.438 52.9766C244.438 51.1667 244.841 49.5456 245.648 48.1133C246.469 46.668 247.595 45.5417 249.027 44.7344C250.46 43.9271 252.068 43.5234 253.852 43.5234ZM253.852 46.4141C252.589 46.4141 251.475 46.694 250.512 47.2539C249.561 47.8008 248.826 48.5755 248.305 49.5781C247.784 50.5677 247.523 51.7005 247.523 52.9766C247.523 54.2526 247.784 55.3919 248.305 56.3945C248.826 57.3841 249.561 58.1589 250.512 58.7188C251.475 59.2656 252.589 59.5391 253.852 59.5391C255.115 59.5391 256.221 59.2656 257.172 58.7188C258.135 58.1589 258.878 57.3841 259.398 56.3945C259.919 55.3919 260.18 54.2526 260.18 52.9766C260.18 51.7005 259.919 50.5677 259.398 49.5781C258.878 48.5755 258.135 47.8008 257.172 47.2539C256.221 46.694 255.115 46.4141 253.852 46.4141ZM280.043 43.5234C281.228 43.5234 282.257 43.7839 283.129 44.3047C284.001 44.8125 284.672 45.5482 285.141 46.5117C285.609 47.4753 285.844 48.6016 285.844 49.8906V59.3438H287.445C287.888 59.3438 288.201 59.4479 288.383 59.6562C288.578 59.8516 288.676 60.1901 288.676 60.6719C288.676 61.1536 288.578 61.4987 288.383 61.707C288.201 61.9023 287.888 62 287.445 62H281.117C280.674 62 280.355 61.9023 280.16 61.707C279.978 61.4987 279.887 61.1536 279.887 60.6719C279.887 60.1901 279.978 59.8516 280.16 59.6562C280.355 59.4479 280.674 59.3438 281.117 59.3438H282.914V50.1836C282.914 49.0247 282.647 48.1068 282.113 47.4297C281.579 46.7526 280.792 46.4141 279.75 46.4141C278.643 46.4141 277.608 46.7331 276.645 47.3711C275.694 48.0091 274.932 48.888 274.359 50.0078C273.786 51.1276 273.5 52.3776 273.5 53.7578V59.3438H275.297C275.74 59.3438 276.052 59.4479 276.234 59.6562C276.43 59.8516 276.527 60.1901 276.527 60.6719C276.527 61.1536 276.43 61.4987 276.234 61.707C276.052 61.9023 275.74 62 275.297 62H268.969C268.526 62 268.207 61.9023 268.012 61.707C267.829 61.4987 267.738 61.1536 267.738 60.6719C267.738 60.1901 267.829 59.8516 268.012 59.6562C268.207 59.4479 268.526 59.3438 268.969 59.3438H270.57V46.6094H268.578C268.135 46.6094 267.816 46.5117 267.621 46.3164C267.439 46.1081 267.348 45.763 267.348 45.2812C267.348 44.7995 267.439 44.4609 267.621 44.2656C267.816 44.0573 268.135 43.9531 268.578 43.9531H272.074C272.517 43.9531 272.829 44.0573 273.012 44.2656C273.207 44.4609 273.305 44.7995 273.305 45.2812V47.625C274.164 46.2969 275.167 45.2812 276.312 44.5781C277.471 43.875 278.715 43.5234 280.043 43.5234ZM300.746 43.5234C302.022 43.5234 303.201 43.8099 304.281 44.3828C305.362 44.9557 306.312 45.776 307.133 46.8438V45.2812C307.133 44.7995 307.224 44.4609 307.406 44.2656C307.602 44.0573 307.921 43.9531 308.363 43.9531H311.469C311.911 43.9531 312.224 44.0573 312.406 44.2656C312.602 44.4609 312.699 44.7995 312.699 45.2812C312.699 45.763 312.602 46.1081 312.406 46.3164C312.224 46.5117 311.911 46.6094 311.469 46.6094H309.867V62.5859C309.867 64.1354 309.535 65.4635 308.871 66.5703C308.22 67.6901 307.27 68.543 306.02 69.1289C304.77 69.7148 303.266 70.0078 301.508 70.0078C300.258 70.0078 298.995 69.8971 297.719 69.6758C296.443 69.4674 295.251 69.1615 294.145 68.7578C293.637 68.5755 293.383 68.2305 293.383 67.7227C293.383 67.5143 293.435 67.2539 293.539 66.9414C293.773 66.2253 294.145 65.8672 294.652 65.8672C294.796 65.8672 294.939 65.8932 295.082 65.9453C296.098 66.3099 297.165 66.5964 298.285 66.8047C299.405 67.013 300.479 67.1172 301.508 67.1172C303.305 67.1172 304.659 66.6875 305.57 65.8281C306.482 64.9818 306.938 63.8164 306.938 62.332V58.4062C305.323 60.4375 303.259 61.4531 300.746 61.4531C299.132 61.4531 297.686 61.0951 296.41 60.3789C295.134 59.6497 294.132 58.6081 293.402 57.2539C292.673 55.8997 292.309 54.3112 292.309 52.4883C292.309 50.6654 292.673 49.0768 293.402 47.7227C294.132 46.3685 295.134 45.3333 296.41 44.6172C297.686 43.888 299.132 43.5234 300.746 43.5234ZM300.941 46.4141C299.783 46.4141 298.786 46.6745 297.953 47.1953C297.12 47.7031 296.482 48.4193 296.039 49.3438C295.609 50.2552 295.395 51.3034 295.395 52.4883C295.395 53.6732 295.609 54.7279 296.039 55.6523C296.482 56.5638 297.12 57.2799 297.953 57.8008C298.786 58.3086 299.783 58.5625 300.941 58.5625C302.1 58.5625 303.129 58.3216 304.027 57.8398C304.939 57.3581 305.648 56.6615 306.156 55.75C306.677 54.8255 306.938 53.7383 306.938 52.4883C306.938 51.2383 306.677 50.1576 306.156 49.2461C305.648 48.3216 304.939 47.6185 304.027 47.1367C303.129 46.6549 302.1 46.4141 300.941 46.4141Z" fill="#443939"/>
<path d="M353.634 97.29C354.034 97.29 354.317 97.3633 354.483 97.5098C354.649 97.6562 354.732 97.9004 354.732 98.2422V103.076C354.732 103.418 354.649 103.662 354.483 103.809C354.317 103.955 354.034 104.028 353.634 104.028C353.233 104.028 352.95 103.955 352.784 103.809C352.618 103.662 352.535 103.418 352.535 103.076C352.535 102.412 352.384 101.807 352.081 101.26C351.788 100.713 351.334 100.278 350.719 99.9561C350.104 99.624 349.342 99.458 348.434 99.458C347.379 99.458 346.441 99.7363 345.621 100.293C344.811 100.85 344.176 101.646 343.717 102.681C343.268 103.716 343.043 104.927 343.043 106.313C343.043 107.7 343.258 108.911 343.688 109.946C344.117 110.972 344.728 111.763 345.519 112.319C346.31 112.876 347.232 113.154 348.287 113.154C349.254 113.154 350.177 113.013 351.056 112.729C351.935 112.446 352.726 112.036 353.429 111.499C353.595 111.362 353.775 111.294 353.971 111.294C354.264 111.294 354.522 111.484 354.747 111.865C354.923 112.158 355.011 112.417 355.011 112.642C355.011 112.935 354.859 113.188 354.557 113.403C353.648 114.038 352.657 114.517 351.583 114.839C350.519 115.161 349.42 115.322 348.287 115.322C346.764 115.322 345.431 114.951 344.288 114.209C343.155 113.457 342.276 112.402 341.651 111.045C341.036 109.688 340.729 108.11 340.729 106.313C340.729 104.526 341.046 102.954 341.681 101.597C342.315 100.229 343.204 99.1699 344.347 98.418C345.499 97.666 346.812 97.29 348.287 97.29C349.205 97.29 350.021 97.4463 350.733 97.7588C351.446 98.0713 352.047 98.5156 352.535 99.0918V98.2422C352.535 97.9004 352.618 97.6562 352.784 97.5098C352.95 97.3633 353.233 97.29 353.634 97.29ZM367.263 97.6123C367.654 97.6123 367.966 97.6904 368.201 97.8467C368.445 97.9932 368.626 98.2324 368.743 98.5645L373.914 113.008H374.807C375.139 113.008 375.374 113.086 375.51 113.242C375.657 113.389 375.73 113.643 375.73 114.004C375.73 114.365 375.657 114.624 375.51 114.78C375.374 114.927 375.139 115 374.807 115H369.622C369.29 115 369.05 114.927 368.904 114.78C368.767 114.624 368.699 114.365 368.699 114.004C368.699 113.643 368.767 113.389 368.904 113.242C369.05 113.086 369.29 113.008 369.622 113.008H371.599L370.398 109.521H363.294L362.078 113.008H363.85C364.182 113.008 364.417 113.086 364.553 113.242C364.7 113.389 364.773 113.643 364.773 114.004C364.773 114.365 364.7 114.624 364.553 114.78C364.417 114.927 364.182 115 363.85 115H358.958C358.626 115 358.386 114.927 358.24 114.78C358.103 114.624 358.035 114.365 358.035 114.004C358.035 113.643 358.103 113.389 358.24 113.242C358.386 113.086 358.626 113.008 358.958 113.008H359.778L364.627 99.6045H361.887C361.555 99.6045 361.316 99.5312 361.17 99.3848C361.033 99.2285 360.964 98.9697 360.964 98.6084C360.964 98.2471 361.033 97.9932 361.17 97.8467C361.316 97.6904 361.555 97.6123 361.887 97.6123H367.263ZM366.721 99.6045L363.982 107.529H369.724L367 99.6045H366.721ZM392.817 97.6123C393.149 97.6123 393.383 97.6904 393.52 97.8467C393.666 97.9932 393.739 98.2471 393.739 98.6084C393.739 98.9697 393.666 99.2285 393.52 99.3848C393.383 99.5312 393.149 99.6045 392.817 99.6045H391.982V114.458C391.982 114.722 391.889 114.932 391.703 115.088C391.528 115.244 391.254 115.322 390.883 115.322C390.365 115.322 389.955 115.054 389.653 114.517L382.05 100.938H381.991V113.008H384.057C384.389 113.008 384.623 113.086 384.76 113.242C384.906 113.389 384.98 113.643 384.98 114.004C384.98 114.365 384.906 114.624 384.76 114.78C384.623 114.927 384.389 115 384.057 115H378.871C378.539 115 378.3 114.927 378.154 114.78C378.017 114.624 377.948 114.365 377.948 114.004C377.948 113.643 378.017 113.389 378.154 113.242C378.3 113.086 378.539 113.008 378.871 113.008H379.853V99.6045H378.725C378.393 99.6045 378.154 99.5312 378.007 99.3848C377.87 99.2285 377.802 98.9697 377.802 98.6084C377.802 98.2471 377.87 97.9932 378.007 97.8467C378.154 97.6904 378.393 97.6123 378.725 97.6123H382.006C382.221 97.6123 382.392 97.6465 382.519 97.7148C382.655 97.7832 382.763 97.8857 382.841 98.0225L389.784 110.444H389.843V99.6045H388.071C387.738 99.6045 387.499 99.5312 387.353 99.3848C387.216 99.2285 387.148 98.9697 387.148 98.6084C387.148 98.2471 387.216 97.9932 387.353 97.8467C387.499 97.6904 387.738 97.6123 388.071 97.6123H392.817ZM429.128 105.479C429.46 105.479 429.695 105.557 429.831 105.713C429.978 105.859 430.051 106.113 430.051 106.475C430.051 106.836 429.978 107.095 429.831 107.251C429.695 107.397 429.46 107.471 429.128 107.471H417.966C417.634 107.471 417.395 107.397 417.248 107.251C417.112 107.095 417.043 106.836 417.043 106.475C417.043 106.113 417.112 105.859 417.248 105.713C417.395 105.557 417.634 105.479 417.966 105.479H429.128ZM462.54 97.6123C462.872 97.6123 463.106 97.6904 463.243 97.8467C463.389 97.9932 463.463 98.2471 463.463 98.6084C463.463 98.9697 463.389 99.2285 463.243 99.3848C463.106 99.5312 462.872 99.6045 462.54 99.6045H458.995V113.008H466.246V108.188C466.246 107.847 466.329 107.603 466.495 107.456C466.661 107.31 466.944 107.236 467.344 107.236C467.745 107.236 468.028 107.31 468.194 107.456C468.36 107.603 468.443 107.847 468.443 108.188V114.004C468.443 114.365 468.37 114.624 468.223 114.78C468.087 114.927 467.852 115 467.52 115H454.424C454.092 115 453.853 114.927 453.707 114.78C453.57 114.624 453.502 114.365 453.502 114.004C453.502 113.643 453.57 113.389 453.707 113.242C453.853 113.086 454.092 113.008 454.424 113.008H456.797V99.6045H454.424C454.092 99.6045 453.853 99.5312 453.707 99.3848C453.57 99.2285 453.502 98.9697 453.502 98.6084C453.502 98.2471 453.57 97.9932 453.707 97.8467C453.853 97.6904 454.092 97.6123 454.424 97.6123H462.54ZM480.593 97.6123C480.984 97.6123 481.296 97.6904 481.53 97.8467C481.775 97.9932 481.955 98.2324 482.072 98.5645L487.243 113.008H488.137C488.469 113.008 488.703 113.086 488.84 113.242C488.987 113.389 489.06 113.643 489.06 114.004C489.06 114.365 488.987 114.624 488.84 114.78C488.703 114.927 488.469 115 488.137 115H482.951C482.619 115 482.38 114.927 482.234 114.78C482.097 114.624 482.029 114.365 482.029 114.004C482.029 113.643 482.097 113.389 482.234 113.242C482.38 113.086 482.619 113.008 482.951 113.008H484.929L483.728 109.521H476.623L475.407 113.008H477.18C477.512 113.008 477.746 113.086 477.883 113.242C478.029 113.389 478.103 113.643 478.103 114.004C478.103 114.365 478.029 114.624 477.883 114.78C477.746 114.927 477.512 115 477.18 115H472.287C471.955 115 471.716 114.927 471.57 114.78C471.433 114.624 471.364 114.365 471.364 114.004C471.364 113.643 471.433 113.389 471.57 113.242C471.716 113.086 471.955 113.008 472.287 113.008H473.108L477.956 99.6045H475.217C474.885 99.6045 474.646 99.5312 474.499 99.3848C474.363 99.2285 474.294 98.9697 474.294 98.6084C474.294 98.2471 474.363 97.9932 474.499 97.8467C474.646 97.6904 474.885 97.6123 475.217 97.6123H480.593ZM480.051 99.6045L477.312 107.529H483.054L480.329 99.6045H480.051ZM506 97.6123C506.332 97.6123 506.566 97.6904 506.703 97.8467C506.849 97.9932 506.923 98.2471 506.923 98.6084C506.923 98.9697 506.849 99.2285 506.703 99.3848C506.566 99.5312 506.332 99.6045 506 99.6045H505.048L500.521 105.962L505.59 113.008H506.439C506.771 113.008 507.006 113.086 507.142 113.242C507.289 113.389 507.362 113.643 507.362 114.004C507.362 114.365 507.289 114.624 507.142 114.78C507.006 114.927 506.771 115 506.439 115H501.254C500.922 115 500.682 114.927 500.536 114.78C500.399 114.624 500.331 114.365 500.331 114.004C500.331 113.643 500.399 113.389 500.536 113.242C500.682 113.086 500.922 113.008 501.254 113.008H502.85L499.115 107.661L495.292 113.008H496.508C496.84 113.008 497.074 113.086 497.211 113.242C497.357 113.389 497.43 113.643 497.43 114.004C497.43 114.365 497.357 114.624 497.211 114.78C497.074 114.927 496.84 115 496.508 115H491.762C491.429 115 491.19 114.927 491.044 114.78C490.907 114.624 490.839 114.365 490.839 114.004C490.839 113.643 490.907 113.389 491.044 113.242C491.19 113.086 491.429 113.008 491.762 113.008H492.67L497.782 105.933L493.212 99.6045H492.201C491.869 99.6045 491.63 99.5312 491.483 99.3848C491.346 99.2285 491.278 98.9697 491.278 98.6084C491.278 98.2471 491.346 97.9932 491.483 97.8467C491.63 97.6904 491.869 97.6123 492.201 97.6123H497.24C497.572 97.6123 497.806 97.6904 497.943 97.8467C498.09 97.9932 498.163 98.2471 498.163 98.6084C498.163 98.9697 498.09 99.2285 497.943 99.3848C497.806 99.5312 497.572 99.6045 497.24 99.6045H495.936L499.174 104.233L502.426 99.6045H501.547C501.215 99.6045 500.975 99.5312 500.829 99.3848C500.692 99.2285 500.624 98.9697 500.624 98.6084C500.624 98.2471 500.692 97.9932 500.829 97.8467C500.975 97.6904 501.215 97.6123 501.547 97.6123H506Z" fill="#443939"/>
<defs>
<filter id="filter0_d_1_106" x="0" y="0" width="562" height="196" filterUnits="userSpaceOnUse" color-interpolation-filters="sRGB">
<feFlood flood-opacity="0" result="BackgroundImageFix"/>
<feColorMatrix in="SourceAlpha" type="matrix" values="0 0 0 0 0 0 0 0 0 0 0 0 0 0 0 0 0 0 127 0" result="hardAlpha"/>
<feOffset dy="4"/>
<feGaussianBlur stdDeviation="2"/>
<feComposite in2="hardAlpha" operator="out"/>
<feColorMatrix type="matrix" values="0 0 0 0 0 0 0 0 0 0 0 0 0 0 0 0 0 0 0.25 0"/>
<feBlend mode="normal" in2="BackgroundImageFix" result="effect1_dropShadow_1_106"/>
<feBlend mode="normal" in="SourceGraphic" in2="effect1_dropShadow_1_106" result="shape"/>
</filter>
</defs>
</svg>
