<svg xmlns="http://www.w3.org/2000/svg" viewBox="0 0 512 512" id="Brain--Streamline-Twemoji" height="512" width="512">
  <desc>
    Brain Streamline Emoji: https://streamlinehq.com
  </desc>
  <path fill="#ea596e" d="M425.18755555555555 379.264c0.042666666666666665 4.0248888888888885 -0.9955555555555556 9.28711111111111 -2.0764444444444443 13.624888888888888 -7.552 30.506666666666664 -41.087999999999994 64.73955555555554 -88.29155555555555 61.62488888888889 -42.78044444444444 -2.816 -77.62488888888889 -23.352888888888888 -77.62488888888889 -52.15288888888888s34.75911111111111 -52.15288888888888 77.62488888888889 -52.15288888888888 90.09777777777778 0.25599999999999995 90.368 29.056z" stroke-width="14.2222"></path>
  <path fill="#dd2e44" d="M334.81955555555555 355.04355555555554c-23.025777777777776 0 -75.57688888888889 6.371555555555555 -87.63733333333333 6.371555555555555 -21.304888888888886 0 -38.58488888888889 13.368888888888888 -38.58488888888889 29.866666666666667 0 7.936 4.067555555555555 15.104 10.581333333333333 20.451555555555554 0 0 14.307555555555554 14.35022222222222 40.07822222222222 7.466666666666667 11.278222222222222 -3.015111111111111 29.62488888888889 -25.400888888888886 61.92355555555555 -28.956444444444443 16.08533333333333 -1.7777777777777777 46.22222222222222 10.666666666666666 99.18577777777777 10.965333333333334 2.2755555555555556 -4.892444444444444 2.7448888888888887 -8.291555555555554 2.7448888888888887 -8.291555555555554 0 -28.828444444444443 -45.425777777777775 -37.873777777777775 -88.29155555555555 -37.873777777777775z" stroke-width="14.2222"></path>
  <path fill="#f4abba" d="M423.1111111111111 392.88888888888886s31.061333333333334 -6.3004444444444445 50.3751111111111 -31.701333333333334c22.513777777777776 -29.62488888888889 19.555555555555554 -61.32622222222222 19.555555555555554 -61.32622222222222 22.812444444444445 -42.666666666666664 -7.111111111111111 -82.67377777777777 -7.111111111111111 -82.67377777777777C482.95822222222216 172.14577777777777 455.1111111111111 153.4862222222222 455.1111111111111 153.4862222222222c-18.07644444444444 -42.96533333333333 -58.06933333333333 -54.513777777777776 -58.06933333333333 -54.513777777777776 -31.40266666666667 -36.736 -87.1111111111111 -35.55555555555556 -87.1111111111111 -35.55555555555556s-52.19555555555555 -19.128888888888888 -123.8471111111111 2.375111111111111c-11.84711111111111 3.5555555555555554 -51.55555555555555 11.84711111111111 -80.59733333333332 29.62488888888889C13.951999999999998 151.4524444444444 7.025777777777777 238.83377777777775 8.305777777777777 253.04177777777778 15.402666666666665 332.4444444444444 71.11111111111111 346.66666666666663 106.66666666666666 354.95822222222216c8.291555555555554 22.513777777777776 38.812444444444445 64 93.62488888888889 48.59733333333333 67.55555555555556 -11.84711111111111 96 -32 112.59733333333332 -32s62.81955555555555 17.77777777777778 110.22222222222221 21.333333333333332z" stroke-width="14.2222"></path>
  <g fill="#ea596e">
    <path d="M252.25955555555552 265.216c33.10933333333333 -17.848888888888887 51.05777777777777 -16.184888888888885 66.90133333333333 -14.748444444444443 5.034666666666666 0.4551111111111111 9.79911111111111 0.8106666666666666 14.620444444444445 0.7822222222222222 28.21688888888889 -0.6399999999999999 51.072 -12.529777777777777 61.18399999999999 -24.035555555555554 2.5884444444444443 -2.958222222222222 2.2897777777777777 -7.4382222222222225 -0.6542222222222221 -10.040888888888889 -2.9297777777777774 -2.5884444444444443 -7.409777777777777 -2.318222222222222 -10.040888888888889 0.6399999999999999 -7.793777777777778 8.874666666666666 -27.008 18.673777777777776 -50.815999999999995 19.214222222222222 -4.266666666666667 0.12799999999999997 -8.547555555555554 -0.2986666666666667 -12.98488888888889 -0.7111111111111111 -16.995555555555555 -1.5786666666666667 -38.10133333333333 -3.5128888888888885 -74.96533333333333 16.383999999999997 -9.457777777777778 5.105777777777777 -22.42844444444444 6.997333333333333 -36.48 8.419555555555554 -31.246222222222222 -45.09866666666666 -12.444444444444443 -84.38044444444444 -7.068444444444444 -93.73866666666666 0.5262222222222221 0.028444444444444442 1.0382222222222222 0.1991111111111111 1.5786666666666667 0.1991111111111111 5.688888888888889 0 11.406222222222222 -1.3937777777777778 16.58311111111111 -4.323555555555555 3.413333333333333 -1.9342222222222223 4.622222222222222 -6.271999999999999 2.6879999999999997 -9.685333333333334s-6.271999999999999 -4.622222222222222 -9.685333333333334 -2.6879999999999997c-9.102222222222222 5.148444444444444 -21.077333333333332 2.1759999999999997 -26.737777777777776 -6.641777777777778 -2.1191111111111107 -3.3137777777777777 -6.5137777777777774 -4.280888888888889 -9.813333333333333 -2.1475555555555554 -3.2995555555555556 2.1191111111111107 -4.266666666666667 6.5137777777777774 -2.1475555555555554 9.813333333333333 3.3706666666666663 5.2764444444444445 8.120888888888889 9.244444444444444 13.482666666666665 11.903999999999998 -7.409777777777777 15.04711111111111 -21.475555555555555 54.61333333333333 5.290666666666667 98.85866666666665 -18.830222222222222 1.8488888888888888 -37.68888888888888 4.508444444444444 -52.45155555555556 14.02311111111111 -9.528888888888888 6.143999999999999 -19.27111111111111 15.132444444444445 -26.70933333333333 25.471999999999998 -8.945777777777778 -1.5359999999999998 -41.699555555555555 -9.6 -47.416888888888884 -45.952 3.5555555555555554 -2.759111111111111 6.428444444444445 -6.3999999999999995 8.206222222222221 -10.894222222222222 1.4506666666666665 -3.655111111111111 -0.3413333333333333 -7.779555555555556 -3.9964444444444447 -9.230222222222222s-7.779555555555556 0.3413333333333333 -9.230222222222222 3.9964444444444447c-1.2657777777777777 3.1999999999999997 -3.5555555555555554 5.532444444444445 -6.456888888888889 6.556444444444445 -2.872888888888889 1.0239999999999998 -6.129777777777777 0.6826666666666666 -9.144888888888888 -0.9955555555555556 -3.4559999999999995 -1.92 -7.765333333333333 -0.6542222222222221 -9.671111111111111 2.759111111111111 -1.9057777777777778 3.4275555555555552 -0.6684444444444444 7.765333333333333 2.759111111111111 9.671111111111111 4.039111111111111 2.247111111111111 8.362666666666666 3.3848888888888884 12.657777777777778 3.3848888888888884 0.5262222222222221 0 1.0239999999999998 -0.24177777777777779 1.5502222222222222 -0.2702222222222222 6.769777777777777 34.31822222222222 33.891555555555556 49.39377777777777 53.077333333333335 53.959111111111106 -2.5031111111111106 5.518222222222222 -4.195555555555555 11.20711111111111 -4.7075555555555555 16.952888888888886 -0.3413333333333333 3.896888888888889 2.5457777777777775 7.367111111111111 6.456888888888889 7.708444444444445l0.6399999999999999 0.028444444444444442c3.6408888888888886 0 6.755555555555555 -2.7733333333333334 7.082666666666666 -6.485333333333333 1.5359999999999998 -17.251555555555555 17.99111111111111 -35.27111111111111 32.611555555555555 -44.72888888888889 13.710222222222221 -8.831999999999999 33.77777777777778 -10.69511111111111 53.20533333333333 -12.501333333333333 18.84444444444444 -1.7208888888888887 36.650666666666666 -3.3706666666666663 50.602666666666664 -10.908444444444443zm182.9831111111111 -21.39022222222222c-1.8631111111111112 3.4417777777777774 -0.5831111111111111 7.765333333333333 2.8444444444444446 9.628444444444444 1.0808888888888888 0.5973333333333334 2.2613333333333334 0.8817777777777778 3.413333333333333 0.8817777777777778 2.5031111111111106 0 4.935111111111111 -1.3226666666666667 6.229333333333333 -3.6835555555555555 0.2702222222222222 -0.48355555555555557 26.197333333333333 -49.05244444444444 -22.34311111111111 -81.69244444444443 -3.2426666666666666 -2.1617777777777776 -7.665777777777778 -1.3226666666666667 -9.870222222222221 1.9342222222222223 -2.1902222222222223 3.2568888888888887 -1.3226666666666667 7.68 1.9342222222222223 9.870222222222221 37.60355555555555 25.28711111111111 18.616888888888887 61.52533333333332 17.791999999999998 63.06133333333333zM140.45866666666666 128.99555555555554c2.2186666666666666 0 4.394666666666667 -1.0239999999999998 5.774222222222222 -2.958222222222222 20.62222222222222 -28.68622222222222 49.18044444444445 -18.872888888888887 50.38933333333333 -18.417777777777776 3.6835555555555555 1.3368888888888888 7.736888888888889 -0.5404444444444444 9.102222222222222 -4.209777777777777 1.3653333333333333 -3.6835555555555555 -0.5119999999999999 -7.765333333333333 -4.195555555555555 -9.130666666666666 -13.653333333333332 -5.063111111111111 -45.184 -6.656 -66.84444444444445 23.466666666666665 -2.2897777777777777 3.1715555555555555 -1.5644444444444443 7.623111111111111 1.6213333333333333 9.912888888888888 1.2657777777777777 0.9102222222222222 2.7164444444444444 1.3368888888888888 4.152888888888889 1.3368888888888888zm185.91288888888886 -26.851555555555553c31.644444444444446 -2.574222222222222 46.03733333333333 20.36622222222222 46.69155555555555 21.44711111111111 1.3368888888888888 2.247111111111111 3.6977777777777776 3.4986666666666664 6.129777777777777 3.4986666666666664 1.223111111111111 0 2.4746666666666663 -0.3128888888888888 3.598222222222222 -0.9813333333333334 3.3848888888888884 -1.9911111111111113 4.522666666666667 -6.343111111111111 2.5457777777777775 -9.728 -0.7679999999999999 -1.2942222222222222 -19.057777777777776 -31.544888888888888 -60.074666666666666 -28.415999999999997 -3.9111111111111114 0.2986666666666667 -6.826666666666666 3.7262222222222223 -6.528 7.651555555555555 0.3128888888888888 3.9111111111111114 3.8542222222222224 6.883555555555555 7.637333333333333 6.528zm130.13333333333333 207.8008888888889c-3.4986666666666664 -0.1991111111111111 -7.352888888888889 2.574222222222222 -7.665777777777778 6.499555555555555 -0.028444444444444442 0.25599999999999995 -2.2897777777777777 24.448 -27.16444444444444 32.62577777777778 -3.7262222222222223 1.223111111111111 -5.76 5.233777777777777 -4.522666666666667 8.974222222222222 0.9671111111111111 2.9866666666666664 3.7688888888888887 4.892444444444444 6.755555555555555 4.892444444444444 0.7395555555555555 0 1.479111111111111 -0.11377777777777777 2.2186666666666666 -0.35555555555555557 33.73511111111111 -11.06488888888889 36.77866666666666 -43.57688888888889 36.89244444444444 -44.95644444444444 0.2986666666666667 -3.9253333333333336 -2.6026666666666665 -7.367111111111111 -6.5137777777777774 -7.68z" stroke-width="14.2222"></path>
    <path d="M104.49066666666667 240.83911111111112c-1.0239999999999998 3.7973333333333334 1.223111111111111 7.694222222222223 5.020444444444444 8.718222222222222 0.6115555555555555 0.17066666666666666 1.2373333333333332 0.24177777777777779 1.8488888888888888 0.24177777777777779 3.1431111111111107 0 6.001777777777777 -2.0906666666666665 6.8551111111111105 -5.2622222222222215 2.7022222222222223 -10.111999999999998 13.184 -16.59733333333333 23.495111111111108 -14.421333333333333 3.8542222222222224 0.7822222222222222 7.608888888888889 -1.6497777777777778 8.419555555555554 -5.504 0.8106666666666666 -3.84 -1.6497777777777778 -7.608888888888889 -5.504 -8.419555555555554 -6.058666666666666 -1.2799999999999998 -12.145777777777777 -0.6826666666666666 -17.749333333333333 1.223111111111111 -16.58311111111111 -28.35911111111111 -13.354666666666665 -56.31999999999999 -13.312 -56.61866666666666 0.5119999999999999 -3.8826666666666667 -2.2186666666666666 -7.452444444444445 -6.101333333333333 -7.992888888888889 -3.8684444444444446 -0.4693333333333333 -7.452444444444445 2.1902222222222223 -7.992888888888889 6.072888888888889 -0.18488888888888888 1.3795555555555554 -3.9822222222222226 32.93866666666666 15.11822222222222 65.62133333333333 -4.750222222222222 4.280888888888889 -8.362666666666666 9.870222222222221 -10.097777777777777 16.34133333333333zm158.99022222222223 -35.12888888888889c5.788444444444444 -5.361777777777777 15.075555555555555 -5.2622222222222215 20.69333333333333 0.21333333333333332 1.3937777777777778 1.3368888888888888 3.1715555555555555 2.005333333333333 4.963555555555555 2.005333333333333 1.8631111111111112 0 3.7119999999999997 -0.7253333333333333 5.091555555555555 -2.1617777777777776 2.7306666666666666 -2.816 2.6737777777777776 -7.3244444444444445 -0.14222222222222222 -10.05511111111111 -3.271111111111111 -3.1715555555555555 -7.182222222222222 -5.290666666666667 -11.335111111111111 -6.613333333333333 4.209777777777777 -14.449777777777777 2.5457777777777775 -20.864 -1.3653333333333333 -32.88177777777777 -0.6826666666666666 -2.0906666666666665 -1.4364444444444444 -4.423111111111111 -2.2328888888888887 -7.082666666666666l-0.42666666666666664 -1.4222222222222223c-5.176888888888889 -17.180444444444444 -8.604444444444443 -28.51555555555555 1.2373333333333332 -44.51555555555555 2.062222222222222 -3.342222222222222 1.0097777777777777 -7.722666666666667 -2.3324444444444445 -9.784888888888888 -3.2853333333333334 -2.0479999999999996 -7.708444444444445 -1.0382222222222222 -9.784888888888888 2.3324444444444445 -13.198222222222222 21.44711111111111 -8.348444444444443 37.504 -2.7306666666666666 56.09244444444444l0.42666666666666664 1.4222222222222223c0.839111111111111 2.759111111111111 1.6071111111111112 5.176888888888889 2.318222222222222 7.352888888888889 3.5128888888888885 10.82311111111111 4.579555555555555 14.449777777777777 0.28444444444444444 27.53422222222222 -5.247999999999999 0.9813333333333334 -10.268444444444443 3.356444444444444 -14.364444444444445 7.167999999999999 -2.872888888888889 2.6737777777777776 -3.029333333333333 7.182222222222222 -0.35555555555555557 10.05511111111111 2.6879999999999997 2.872888888888889 7.196444444444444 3.015111111111111 10.05511111111111 0.3413333333333333zm90.52444444444444 -42.453333333333326c4.1386666666666665 0 8.319999999999999 -0.8675555555555555 12.216888888888889 -2.7164444444444444 3.5555555555555554 -1.678222222222222 5.077333333333333 -5.916444444444444 3.399111111111111 -9.472 -1.664 -3.5555555555555554 -5.959111111111111 -5.034666666666666 -9.457777777777778 -3.399111111111111 -7.139555555555555 3.356444444444444 -15.94311111111111 0.4408888888888889 -19.683555555555554 -6.499555555555555 -1.8631111111111112 -3.470222222222222 -6.200888888888889 -4.736 -9.628444444444444 -2.9155555555555552 -3.4559999999999995 1.8488888888888888 -4.764444444444444 6.172444444444444 -2.901333333333333 9.628444444444444 2.5599999999999996 4.778666666666667 6.371555555555555 8.547555555555554 10.80888888888889 11.164444444444444 -7.637333333333333 18.56 -3.2995555555555556 38.272 0.24177777777777779 48.72533333333333 0.9955555555555556 2.9724444444444442 3.7688888888888887 4.835555555555556 6.7413333333333325 4.835555555555556 0.7537777777777778 0 1.5075555555555555 -0.11377777777777777 2.2755555555555556 -0.36977777777777776 3.7262222222222223 -1.2515555555555553 5.717333333333333 -5.290666666666667 4.451555555555555 -9.002666666666666 -2.3893333333333335 -7.082666666666666 -7.025777777777777 -24.97422222222222 -0.028444444444444442 -40.192 0.5404444444444444 0.028444444444444442 1.0382222222222222 0.21333333333333332 1.5644444444444443 0.21333333333333332zm68.22399999999999 134.10133333333334c-0.2702222222222222 -3.9111111111111114 -3.655111111111111 -6.997333333333333 -7.552 -6.641777777777778 -14.421333333333333 1.0239999999999998 -26.70933333333333 -9.912888888888888 -27.690666666666665 -24.220444444444443 -0.28444444444444444 -3.9111111111111114 -3.7688888888888887 -6.826666666666666 -7.580444444444445 -6.613333333333333 -3.9111111111111114 0.2702222222222222 -6.869333333333333 3.6693333333333333 -6.613333333333333 7.580444444444445 0.5831111111111111 8.39111111111111 3.7831111111111113 15.957333333333334 8.64711111111111 22.115555555555552 -11.434666666666667 13.45422222222222 -26.410666666666664 17.28 -34.75911111111111 18.261333333333333 -7.381333333333333 0.8817777777777778 -13.838222222222221 0.12799999999999997 -21.304888888888886 -0.7537777777777778 -6.840888888888888 -0.7822222222222222 -14.577777777777776 -1.678222222222222 -24.14933333333333 -1.3937777777777778l-0.07111111111111111 0.014222222222222221c-0.28444444444444444 -4.067555555555555 -1.2515555555555553 -9.998222222222221 -4.337777777777777 -14.933333333333334 -2.0764444444444443 -3.3137777777777777 -6.471111111111111 -4.323555555555555 -9.79911111111111 -2.247111111111111 -3.3137777777777777 2.0764444444444443 -4.337777777777777 6.471111111111111 -2.247111111111111 9.79911111111111 1.9057777777777778 3.0577777777777775 2.2613333333333334 7.936 2.2613333333333334 10.31111111111111 -7.167999999999999 2.574222222222222 -13.368888888888888 6.357333333333333 -18.972444444444445 10.012444444444442 -10.012444444444442 6.5137777777777774 -17.905777777777775 11.662222222222221 -29.78133333333333 8.988444444444443 -10.751999999999999 -2.460444444444444 -21.51822222222222 -2.958222222222222 -30.648888888888884 -1.678222222222222 -1.4222222222222223 -3.5697777777777775 -3.6693333333333333 -7.836444444444445 -7.139555555555555 -11.121777777777778 -2.8586666666666667 -2.7022222222222223 -7.352888888888889 -2.5884444444444443 -10.05511111111111 0.28444444444444444 -2.6879999999999997 2.8444444444444446 -2.574222222222222 7.352888888888889 0.28444444444444444 10.05511111111111 1.223111111111111 1.152 2.1902222222222223 2.8302222222222224 2.9724444444444442 4.508444444444444 -15.68711111111111 6.456888888888889 -23.551999999999996 17.251555555555555 -23.921777777777777 17.77777777777778 -2.2755555555555556 3.1857777777777776 -1.5217777777777777 7.580444444444445 1.6355555555555554 9.870222222222221 1.2515555555555553 0.8959999999999999 2.7022222222222223 1.3368888888888888 4.152888888888889 1.3368888888888888 2.2044444444444444 0 4.380444444444445 -1.0097777777777777 5.774222222222222 -2.9155555555555552 0.07111111111111111 -0.11377777777777777 7.879111111111111 -10.56711111111111 23.281777777777776 -14.79111111111111 7.964444444444445 -2.1902222222222223 19.384888888888888 -2.005333333333333 30.520888888888887 0.5262222222222221 3.1146666666666665 0.7111111111111111 6.001777777777777 0.9528888888888889 8.803555555555555 0.9955555555555556 1.3226666666666667 3.1004444444444443 1.8346666666666667 6.783999999999999 1.9057777777777778 8.149333333333333 0.22755555555555554 3.7831111111111113 3.356444444444444 6.712888888888888 7.096888888888889 6.712888888888888l0.38399999999999995 -0.014222222222222221c3.9111111111111114 -0.21333333333333332 6.911999999999999 -3.527111111111111 6.72711111111111 -7.4382222222222225 -0.042666666666666665 -0.7111111111111111 -0.3271111111111111 -4.920888888888888 -1.8488888888888888 -9.756444444444444 6.556444444444445 -2.375111111111111 12.259555555555554 -6.087111111111111 17.621333333333332 -9.571555555555555 8.13511111111111 -5.304888888888889 15.829333333333333 -10.325333333333333 25.884444444444444 -10.652444444444443 8.419555555555554 -0.2986666666666667 15.36 0.5119999999999999 22.058666666666664 1.2942222222222222 6.7413333333333325 0.7822222222222222 13.368888888888888 1.2942222222222222 20.67911111111111 0.8675555555555555 1.2942222222222222 3.598222222222222 1.1946666666666668 8.405333333333333 0.9955555555555556 10.012444444444442 -0.4693333333333333 3.8826666666666667 2.2755555555555556 7.4382222222222225 6.172444444444444 7.950222222222223 0.2986666666666667 0.042666666666666665 0.5973333333333334 0.056888888888888885 0.8959999999999999 0.056888888888888885 3.5128888888888885 0 6.570666666666667 -2.6026666666666665 7.039999999999999 -6.1866666666666665 0.11377777777777777 -0.8817777777777778 0.839111111111111 -7.281777777777777 -0.839111111111111 -13.951999999999998 10.211555555555554 -2.7448888888888887 22.869333333333334 -8.703999999999999 33.35111111111111 -20.92088888888889 6.129777777777777 3.7546666666666666 13.283555555555555 5.959111111111111 20.892444444444443 5.959111111111111 0.8817777777777778 0 1.7777777777777777 -0.028444444444444442 2.6595555555555555 -0.08533333333333333 3.9111111111111114 -0.25599999999999995 6.869333333333333 -3.6266666666666665 6.613333333333333 -7.552z" stroke-width="14.2222"></path>
  </g>
</svg>