<svg width="450" height="450" viewBox="0 0 450 450" fill="none" xmlns="http://www.w3.org/2000/svg">
<path d="M277.923 299.336C279.208 288.38 270.426 278.857 259.402 279.251L196.628 281.496C191.132 281.692 186.028 284.39 182.77 288.821L136.637 351.562C132.582 357.076 125.751 359.814 119.01 358.625L68.9581 349.8C59.168 348.073 52.631 338.738 54.3573 328.947L100.2 68.9582C101.927 59.1681 111.262 52.631 121.053 54.3573L166.547 62.3793C175.451 63.9492 181.808 71.8794 181.404 80.911L177.981 157.357C177.499 168.13 186.533 176.907 197.288 176.113L259.986 171.485C265.705 171.063 270.881 167.941 273.922 163.079L313.549 99.7231C317.438 93.5045 324.712 90.2679 331.935 91.5416L381.042 100.2C390.832 101.927 397.369 111.263 395.643 121.053L349.8 381.042C348.073 390.832 338.737 397.369 328.947 395.643L284.62 387.827C275.228 386.171 268.757 377.476 269.868 368.003L277.923 299.336Z" fill="url(#paint0_linear_4_73)"/>
<path d="M277.923 299.336C279.208 288.38 270.426 278.857 259.402 279.251L196.628 281.496C191.132 281.692 186.028 284.39 182.77 288.821L136.637 351.562C132.582 357.076 125.751 359.814 119.01 358.625L68.9581 349.8C59.168 348.073 52.631 338.738 54.3573 328.947L100.2 68.9582C101.927 59.1681 111.262 52.631 121.053 54.3573L166.547 62.3793C175.451 63.9492 181.808 71.8794 181.404 80.911L177.981 157.357C177.499 168.13 186.533 176.907 197.288 176.113L259.986 171.485C265.705 171.063 270.881 167.941 273.922 163.079L313.549 99.7231C317.438 93.5045 324.712 90.2679 331.935 91.5416L381.042 100.2C390.832 101.927 397.369 111.263 395.643 121.053L349.8 381.042C348.073 390.832 338.737 397.369 328.947 395.643L284.62 387.827C275.228 386.171 268.757 377.476 269.868 368.003L277.923 299.336Z" fill="#1F40D4" fill-opacity="0.75"/>
<defs>
<linearGradient id="paint0_linear_4_73" x1="103.326" y1="51.2316" x2="270.775" y2="431.963" gradientUnits="userSpaceOnUse">
<stop offset="0.25446"/>
<stop offset="0.670166" stop-color="#333333" stop-opacity="0.8"/>
<stop offset="0.863765" stop-color="#666666"/>
</linearGradient>
</defs>
</svg>
