<svg width="292" height="358" viewBox="0 0 292 358" fill="none" xmlns="http://www.w3.org/2000/svg">
<path d="M209.048 252.181C208.508 240.754 197.584 232.722 186.516 235.615L128.749 250.713C123.244 252.152 118.744 256.109 116.612 261.385L82.3724 346.12C79.6236 352.923 73.0207 357.376 65.6834 357.376H18C8.05888 357.376 0 349.317 0 339.376V18C0 8.05887 8.05887 0 18 0H61.6406C70.8432 0 78.5639 6.94144 79.5392 16.0923L89.6792 111.226C90.881 122.502 102.083 129.871 112.913 126.51L170.15 108.747C175.704 107.023 180.083 102.723 181.907 97.2014L209.935 12.354C212.371 4.98027 219.261 0 227.027 0H273.84C283.781 0 291.84 8.05887 291.84 18V339.376C291.84 349.317 283.781 357.376 273.84 357.376H231.186C221.575 357.376 213.659 349.825 213.206 340.225L209.048 252.181Z" fill="url(#paint0_linear_2_64)"/>
<defs>
<linearGradient id="paint0_linear_2_64" x1="0" y1="0" x2="292" y2="357" gradientUnits="userSpaceOnUse">
<stop offset="0.25446"/>
<stop offset="0.670166" stop-color="#333333" stop-opacity="0.8"/>
<stop offset="0.863765" stop-color="#666666"/>
</linearGradient>
</defs>
</svg>
