<svg width="310" height="365" viewBox="0 0 310 365" fill="none" xmlns="http://www.w3.org/2000/svg">
<path d="M95.8242 23.376C95.8242 31.6602 89.1085 38.376 80.8242 38.376H77.5762C69.2919 38.376 62.5762 45.0917 62.5762 53.376V83.376C62.5762 91.6602 69.2919 98.376 77.5762 98.376H80.8242C89.1085 98.376 95.8242 105.092 95.8242 113.376V127.336C95.8242 135.62 102.54 142.336 110.824 142.336H217.017C225.301 142.336 232.017 135.62 232.017 127.336V15C232.017 6.71573 238.732 0 247.017 0H294.84C303.124 0 309.84 6.71573 309.84 15V342.376C309.84 350.66 303.124 357.376 294.84 357.376H247.017C238.732 357.376 232.017 350.66 232.017 342.376V225.944C232.017 217.66 225.301 210.944 217.017 210.944H110.824C102.54 210.944 95.8242 217.66 95.8242 225.944V342.376C95.8242 350.66 89.1085 357.376 80.8242 357.376H33C24.7157 357.376 18 350.66 18 342.376V310.664C18 303.878 23.5016 298.376 30.2881 298.376C37.0746 298.376 42.5762 292.874 42.5762 286.088V250.664C42.5762 243.878 37.0746 238.376 30.2881 238.376C23.5016 238.376 18 232.874 18 226.088V15C18 6.71573 24.7157 0 33 0H80.8242C89.1085 0 95.8242 6.71573 95.8242 15V23.376Z" fill="white"/>
<path d="M77.8242 31C77.8242 39.2843 71.1085 46 62.8242 46H59.5762C51.2919 46 44.5762 52.7157 44.5762 61V91C44.5762 99.2843 51.2919 106 59.5762 106H62.8242C71.1085 106 77.8242 112.716 77.8242 121V134.96C77.8242 143.244 84.5399 149.96 92.8242 149.96H199.017C207.301 149.96 214.017 143.244 214.017 134.96V22.624C214.017 14.3397 220.732 7.62402 229.017 7.62402H276.84C285.124 7.62402 291.84 14.3398 291.84 22.624V350C291.84 358.284 285.124 365 276.84 365H229.017C220.732 365 214.017 358.284 214.017 350V233.568C214.017 225.284 207.301 218.568 199.017 218.568H92.8242C84.5399 218.568 77.8242 225.284 77.8242 233.568V350C77.8242 358.284 71.1085 365 62.8242 365H15C6.71573 365 0 358.284 0 350V318.288C0 311.502 5.50156 306 12.2881 306C19.0746 306 24.5762 300.498 24.5762 293.712V258.288C24.5762 251.502 19.0746 246 12.2881 246C5.50156 246 0 240.498 0 233.712V22.624C0 14.3398 6.71573 7.62402 15 7.62402H62.8242C71.1085 7.62402 77.8242 14.3398 77.8242 22.624V31Z" fill="black"/>
</svg>
