<svg width="532" height="622" viewBox="0 0 532 622" fill="none" xmlns="http://www.w3.org/2000/svg">
<g filter="url(#filter0_dg_404_56)">
<path d="M477.547 36.1641C475.869 40.0907 470.052 46.7648 461.404 50.5763C452.542 54.4815 440.009 55.4986 426.005 56.9134C415.149 58.0103 406.274 59.5557 401.986 62.888C398.505 66.0166 395.68 70.2489 393.677 75.812C392.932 78.6886 392.738 81.6741 393.899 87.0234" stroke="black" stroke-width="14" stroke-linecap="round"/>
<path d="M491.484 37.7031C489.704 41.9681 484.75 52.7448 479.767 66.5559C473.059 85.1476 470.951 110.822 466.622 147.789C465.331 158.822 465.499 165.685 465.065 181.674C464.154 215.216 466.938 245.17 468.774 258.57C471.119 275.684 474.924 297.973 478.141 317.255C481.313 336.268 482.343 347.384 483.82 358.705C485.098 368.501 486.529 379.015 487.959 389.502C491.343 414.306 489.677 433.743 489.742 444.372C489.53 446.881 489.108 448.856 488.717 450.911C488.327 452.966 487.981 455.041 487.164 457.633" stroke="black" stroke-width="14" stroke-linecap="round"/>
<path d="M385.406 129.273C385.254 133.522 383.563 147.477 380.407 164.757C376.481 186.253 373.582 197.99 370.601 209.501C368.173 218.873 359.636 225.789 352.47 230.762C343.536 236.963 332.889 241.791 303.321 243.014C282.083 243.893 268.426 243.391 264.537 246.019C260.879 249.933 258.421 254.204 257.436 258.391C257.102 260.646 257.102 263.168 257.102 265.766" stroke="black" stroke-width="14" stroke-linecap="round"/>
<path d="M247.243 309.641C246.001 313.794 241.785 327.334 237.127 345.884C230.169 373.592 223.347 383.122 217.724 393.281C213.144 401.554 205.699 406.828 197.592 411.567C186.866 417.837 172.069 419.427 141.552 419.898C128.345 420.101 107.819 417.435 90.3339 415.915C59.2604 413.212 39.7011 410.379 27.1735 410.195C22.1285 410.121 18.0465 411.96 14.2486 414.457C9.92688 417.299 8.86812 422.76 9.17675 427.292C11.3287 432.502 14.2655 437.301 16.8357 441.319C18.055 443.38 19.1017 445.486 25.102 450.375" stroke="black" stroke-width="14" stroke-linecap="round"/>
<path d="M256 313C251.488 340.834 247.295 376.718 246.276 391.823C243.728 429.592 243.524 454.158 242.148 465.832C240.225 482.164 236.28 497.617 231.434 510.201C227.805 519.627 225.748 528.354 222.405 537.804C220.787 542.378 216.706 545.45 212.834 547.899C205.009 552.849 192.139 553.593 184.995 560.846C178.245 567.7 179.707 580.039 181.517 589.317C182.184 591.449 182.841 593.554 186.478 590.376C190.114 587.198 196.709 578.674 203.504 569.891" stroke="black" stroke-width="14" stroke-linecap="round"/>
<path d="M393.461 131.625C390.275 148.487 384.742 189.216 383.815 210.367C382.454 241.393 383.968 263.909 384.487 279.088C385.76 316.281 384.976 343.306 385.448 350.423C386.283 362.986 385.416 373.76 384.742 379.084C383.671 387.552 374.134 391.556 364.596 396.833C357.548 403.498 353.676 409.711 352.177 421.386C351.603 430.461 351.41 445.93 354.187 459.641" stroke="black" stroke-width="14" stroke-linecap="round"/>
<path d="M498.687 474.742C497.425 477.124 495.106 485.2 493.346 493.225C491.532 501.5 487.932 509.245 480.998 516.029C472.229 524.609 460.826 521.462 447.297 528.35C414.935 544.828 410.09 558.224 407.987 566.117C408.856 568.559 411.463 571.462 414.483 573.908C417.502 576.353 420.856 578.253 427.039 579.289" stroke="black" stroke-width="14" stroke-linecap="round"/>
<g filter="url(#filter1_g_404_56)">
<circle cx="477" cy="31" r="29" fill="#79AAD4"/>
<circle cx="477" cy="31" r="24.5" stroke="black" stroke-width="9"/>
</g>
<g filter="url(#filter2_g_404_56)">
<circle cx="422" cy="583" r="29" fill="#79AAD4"/>
<circle cx="422" cy="583" r="24.5" stroke="black" stroke-width="9"/>
</g>
<g filter="url(#filter3_g_404_56)">
<circle cx="189" cy="583" r="29" fill="#79AAD4"/>
<circle cx="189" cy="583" r="24.5" stroke="black" stroke-width="9"/>
</g>
<g filter="url(#filter4_g_404_56)">
<circle cx="352" cy="483" r="29" fill="#79AAD4"/>
<circle cx="352" cy="483" r="24.5" stroke="black" stroke-width="9"/>
</g>
<g filter="url(#filter5_g_404_56)">
<circle cx="235" cy="483" r="29" fill="#79AAD4"/>
<circle cx="235" cy="483" r="24.5" stroke="black" stroke-width="9"/>
</g>
<g filter="url(#filter6_g_404_56)">
<circle cx="35" cy="483" r="29" fill="#79AAD4"/>
<circle cx="35" cy="483" r="24.5" stroke="black" stroke-width="9"/>
</g>
<g filter="url(#filter7_g_404_56)">
<circle cx="250" cy="295" r="29" fill="#79AAD4"/>
<circle cx="250" cy="295" r="24.5" stroke="black" stroke-width="9"/>
</g>
<g filter="url(#filter8_g_404_56)">
<circle cx="491" cy="475" r="29" fill="#79AAD4"/>
<circle cx="491" cy="475" r="24.5" stroke="black" stroke-width="9"/>
</g>
<g filter="url(#filter9_g_404_56)">
<circle cx="385" cy="113" r="29" fill="#79AAD4"/>
<circle cx="385" cy="113" r="24.5" stroke="black" stroke-width="9"/>
</g>
</g>
<defs>
<filter id="filter0_dg_404_56" x="0.929883" y="0.8" width="531.07" height="621.2" filterUnits="userSpaceOnUse" color-interpolation-filters="sRGB">
<feFlood flood-opacity="0" result="BackgroundImageFix"/>
<feColorMatrix in="SourceAlpha" type="matrix" values="0 0 0 0 0 0 0 0 0 0 0 0 0 0 0 0 0 0 127 0" result="hardAlpha"/>
<feOffset dx="8" dy="6"/>
<feGaussianBlur stdDeviation="2"/>
<feComposite in2="hardAlpha" operator="out"/>
<feColorMatrix type="matrix" values="0 0 0 0 0 0 0 0 0 0 0 0 0 0 0 0 0 0 0.35 0"/>
<feBlend mode="normal" in2="BackgroundImageFix" result="effect1_dropShadow_404_56"/>
<feBlend mode="normal" in="SourceGraphic" in2="effect1_dropShadow_404_56" result="shape"/>
<feTurbulence type="fractalNoise" baseFrequency="0.47619050741195679 0.47619050741195679" numOctaves="3" seed="592" />
<feDisplacementMap in="shape" scale="2.4000000953674316" xChannelSelector="R" yChannelSelector="G" result="displacedImage" width="100%" height="100%" />
<feMerge result="effect2_texture_404_56">
<feMergeNode in="displacedImage"/>
</feMerge>
</filter>
<filter id="filter1_g_404_56" x="446" y="0" width="62" height="62" filterUnits="userSpaceOnUse" color-interpolation-filters="sRGB">
<feFlood flood-opacity="0" result="BackgroundImageFix"/>
<feBlend mode="normal" in="SourceGraphic" in2="BackgroundImageFix" result="shape"/>
<feTurbulence type="fractalNoise" baseFrequency="1.25 1.25" numOctaves="3" seed="3213" />
<feDisplacementMap in="shape" scale="4" xChannelSelector="R" yChannelSelector="G" result="displacedImage" width="100%" height="100%" />
<feMerge result="effect1_texture_404_56">
<feMergeNode in="displacedImage"/>
</feMerge>
</filter>
<filter id="filter2_g_404_56" x="391" y="552" width="62" height="62" filterUnits="userSpaceOnUse" color-interpolation-filters="sRGB">
<feFlood flood-opacity="0" result="BackgroundImageFix"/>
<feBlend mode="normal" in="SourceGraphic" in2="BackgroundImageFix" result="shape"/>
<feTurbulence type="fractalNoise" baseFrequency="1.25 1.25" numOctaves="3" seed="3213" />
<feDisplacementMap in="shape" scale="4" xChannelSelector="R" yChannelSelector="G" result="displacedImage" width="100%" height="100%" />
<feMerge result="effect1_texture_404_56">
<feMergeNode in="displacedImage"/>
</feMerge>
</filter>
<filter id="filter3_g_404_56" x="158" y="552" width="62" height="62" filterUnits="userSpaceOnUse" color-interpolation-filters="sRGB">
<feFlood flood-opacity="0" result="BackgroundImageFix"/>
<feBlend mode="normal" in="SourceGraphic" in2="BackgroundImageFix" result="shape"/>
<feTurbulence type="fractalNoise" baseFrequency="1.25 1.25" numOctaves="3" seed="3213" />
<feDisplacementMap in="shape" scale="4" xChannelSelector="R" yChannelSelector="G" result="displacedImage" width="100%" height="100%" />
<feMerge result="effect1_texture_404_56">
<feMergeNode in="displacedImage"/>
</feMerge>
</filter>
<filter id="filter4_g_404_56" x="321" y="452" width="62" height="62" filterUnits="userSpaceOnUse" color-interpolation-filters="sRGB">
<feFlood flood-opacity="0" result="BackgroundImageFix"/>
<feBlend mode="normal" in="SourceGraphic" in2="BackgroundImageFix" result="shape"/>
<feTurbulence type="fractalNoise" baseFrequency="1.25 1.25" numOctaves="3" seed="3213" />
<feDisplacementMap in="shape" scale="4" xChannelSelector="R" yChannelSelector="G" result="displacedImage" width="100%" height="100%" />
<feMerge result="effect1_texture_404_56">
<feMergeNode in="displacedImage"/>
</feMerge>
</filter>
<filter id="filter5_g_404_56" x="204" y="452" width="62" height="62" filterUnits="userSpaceOnUse" color-interpolation-filters="sRGB">
<feFlood flood-opacity="0" result="BackgroundImageFix"/>
<feBlend mode="normal" in="SourceGraphic" in2="BackgroundImageFix" result="shape"/>
<feTurbulence type="fractalNoise" baseFrequency="1.25 1.25" numOctaves="3" seed="3213" />
<feDisplacementMap in="shape" scale="4" xChannelSelector="R" yChannelSelector="G" result="displacedImage" width="100%" height="100%" />
<feMerge result="effect1_texture_404_56">
<feMergeNode in="displacedImage"/>
</feMerge>
</filter>
<filter id="filter6_g_404_56" x="4" y="452" width="62" height="62" filterUnits="userSpaceOnUse" color-interpolation-filters="sRGB">
<feFlood flood-opacity="0" result="BackgroundImageFix"/>
<feBlend mode="normal" in="SourceGraphic" in2="BackgroundImageFix" result="shape"/>
<feTurbulence type="fractalNoise" baseFrequency="1.25 1.25" numOctaves="3" seed="3213" />
<feDisplacementMap in="shape" scale="4" xChannelSelector="R" yChannelSelector="G" result="displacedImage" width="100%" height="100%" />
<feMerge result="effect1_texture_404_56">
<feMergeNode in="displacedImage"/>
</feMerge>
</filter>
<filter id="filter7_g_404_56" x="219" y="264" width="62" height="62" filterUnits="userSpaceOnUse" color-interpolation-filters="sRGB">
<feFlood flood-opacity="0" result="BackgroundImageFix"/>
<feBlend mode="normal" in="SourceGraphic" in2="BackgroundImageFix" result="shape"/>
<feTurbulence type="fractalNoise" baseFrequency="1.25 1.25" numOctaves="3" seed="3213" />
<feDisplacementMap in="shape" scale="4" xChannelSelector="R" yChannelSelector="G" result="displacedImage" width="100%" height="100%" />
<feMerge result="effect1_texture_404_56">
<feMergeNode in="displacedImage"/>
</feMerge>
</filter>
<filter id="filter8_g_404_56" x="460" y="444" width="62" height="62" filterUnits="userSpaceOnUse" color-interpolation-filters="sRGB">
<feFlood flood-opacity="0" result="BackgroundImageFix"/>
<feBlend mode="normal" in="SourceGraphic" in2="BackgroundImageFix" result="shape"/>
<feTurbulence type="fractalNoise" baseFrequency="1.25 1.25" numOctaves="3" seed="3213" />
<feDisplacementMap in="shape" scale="4" xChannelSelector="R" yChannelSelector="G" result="displacedImage" width="100%" height="100%" />
<feMerge result="effect1_texture_404_56">
<feMergeNode in="displacedImage"/>
</feMerge>
</filter>
<filter id="filter9_g_404_56" x="354" y="82" width="62" height="62" filterUnits="userSpaceOnUse" color-interpolation-filters="sRGB">
<feFlood flood-opacity="0" result="BackgroundImageFix"/>
<feBlend mode="normal" in="SourceGraphic" in2="BackgroundImageFix" result="shape"/>
<feTurbulence type="fractalNoise" baseFrequency="1.25 1.25" numOctaves="3" seed="3213" />
<feDisplacementMap in="shape" scale="4" xChannelSelector="R" yChannelSelector="G" result="displacedImage" width="100%" height="100%" />
<feMerge result="effect1_texture_404_56">
<feMergeNode in="displacedImage"/>
</feMerge>
</filter>
</defs>
</svg>
