<svg width="500" height="500" viewBox="0 0 500 500" fill="none" xmlns="http://www.w3.org/2000/svg">
<g filter="url(#filter0_d_1_32)">
<path d="M189.824 94.376C189.824 102.66 183.108 109.376 174.824 109.376H172C163.716 109.376 157 116.092 157 124.376V164.376C157 172.66 163.716 179.376 172 179.376H174.824C183.108 179.376 189.824 186.092 189.824 194.376V198.336C189.824 206.62 196.54 213.336 204.824 213.336H311.017C319.301 213.336 326.017 206.62 326.017 198.336V86C326.017 77.7157 332.732 71 341.017 71H388.84C397.124 71 403.84 77.7157 403.84 86V413.376C403.84 421.66 397.124 428.376 388.84 428.376H341.017C332.732 428.376 326.017 421.66 326.017 413.376V296.944C326.017 288.66 319.301 281.944 311.017 281.944H204.824C196.54 281.944 189.824 288.66 189.824 296.944V413.376C189.824 421.66 183.108 428.376 174.824 428.376H127C118.716 428.376 112 421.66 112 413.376V394.376C112 386.092 118.716 379.376 127 379.376H132C140.284 379.376 147 372.66 147 364.376V324.376C147 316.092 140.284 309.376 132 309.376H127C118.716 309.376 112 302.66 112 294.376V86C112 77.7157 118.716 71 127 71H174.824C183.108 71 189.824 77.7157 189.824 86V94.376Z" fill="white"/>
<path d="M174.824 95C174.824 103.284 168.108 110 159.824 110H157C148.716 110 142 116.716 142 125V165C142 173.284 148.716 180 157 180H159.824C168.108 180 174.824 186.716 174.824 195V198.96C174.824 207.244 181.54 213.96 189.824 213.96H296.017C304.301 213.96 311.017 207.244 311.017 198.96V86.624C311.017 78.3397 317.732 71.624 326.017 71.624H373.84C382.124 71.624 388.84 78.3398 388.84 86.624V414C388.84 422.284 382.124 429 373.84 429H326.017C317.732 429 311.017 422.284 311.017 414V297.568C311.017 289.284 304.301 282.568 296.017 282.568H189.824C181.54 282.568 174.824 289.284 174.824 297.568V414C174.824 422.284 168.108 429 159.824 429H112C103.716 429 97 422.284 97 414V395C97 386.716 103.716 380 112 380H117C125.284 380 132 373.284 132 365V325C132 316.716 125.284 310 117 310H112C103.716 310 97 303.284 97 295V86.624C97 78.3398 103.716 71.624 112 71.624H159.824C168.108 71.624 174.824 78.3398 174.824 86.624V95Z" fill="black"/>
</g>
<defs>
<filter id="filter0_d_1_32" x="93" y="71" width="314.84" height="366" filterUnits="userSpaceOnUse" color-interpolation-filters="sRGB">
<feFlood flood-opacity="0" result="BackgroundImageFix"/>
<feColorMatrix in="SourceAlpha" type="matrix" values="0 0 0 0 0 0 0 0 0 0 0 0 0 0 0 0 0 0 127 0" result="hardAlpha"/>
<feOffset dy="4"/>
<feGaussianBlur stdDeviation="2"/>
<feComposite in2="hardAlpha" operator="out"/>
<feColorMatrix type="matrix" values="0 0 0 0 0 0 0 0 0 0 0 0 0 0 0 0 0 0 0.25 0"/>
<feBlend mode="normal" in2="BackgroundImageFix" result="effect1_dropShadow_1_32"/>
<feBlend mode="normal" in="SourceGraphic" in2="effect1_dropShadow_1_32" result="shape"/>
</filter>
</defs>
</svg>
