<svg width="332" height="217" viewBox="0 0 332 217" fill="none" xmlns="http://www.w3.org/2000/svg">
<path d="M10 100.145C10.312 98.5722 11.3389 94.6554 14.7913 85.0564C20.7697 68.4336 27.291 56.8613 30.8281 52.2876C36.0212 45.5724 48.0254 37.4966 63.437 28.9078C70.667 24.8786 77.2013 22.4576 86.8484 19.4931C96.4955 16.5287 109.186 13.3344 119.906 11.5748C138.838 8.46688 154.457 10.4566 168.767 13.2532C176.274 14.7202 184.086 17.1906 192.373 20.7535C200.659 24.3163 209.135 29.1284 216.891 34.0939C224.646 39.0595 231.426 44.0327 238.224 49.9004C245.022 55.7682 251.633 62.3798 258.152 70.0525C264.67 77.7253 270.895 86.2589 276.241 94.256C281.587 102.253 285.865 109.455 290.285 117.922C294.705 126.39 299.137 135.904 304.337 150.141C309.537 164.377 315.372 183.046 318.492 193.151C321.612 203.256 321.842 204.231 321.613 206.598" stroke="black" stroke-width="20" stroke-linecap="round"/>
<path d="M86.2962 47C84.6401 48.0677 80.6409 53.1057 75.2827 69.6104C70.4512 84.4926 72.1405 98.6099 72.9912 107.97C73.9649 118.684 78.8979 130.308 84.9149 141.087C89.811 149.858 98.5633 158.302 108.966 167.891C118.146 176.353 127.274 180.29 134.916 183.207C143.951 186.654 161.24 187.304 181.281 187.907C194.203 188.296 200.454 186.251 205.214 184.72C213.441 182.073 222.773 177.201 230.602 172.406C236.522 168.781 241.763 161.929 247.719 153.914C254.562 140.351 257.998 124.918 259.541 110.751C260.066 104.751 260.066 101.166 259.835 96.7812" stroke="black" stroke-width="20" stroke-linecap="round"/>
</svg>
