<svg width="200" height="224" viewBox="0 0 200 224" fill="none" xmlns="http://www.w3.org/2000/svg">
<path d="M200 70C200 86.5685 186.569 100 170 100H112C105.373 100 100 105.373 100 112C100 118.627 105.373 124 112 124H170C186.569 124 200 137.431 200 154V194C200 210.569 186.569 224 170 224H130C113.431 224 100 210.569 100 194V192C100 175.431 86.5685 162 70 162H30C13.4315 162 0 148.569 0 132V92C0 75.4315 13.4315 62 30 62H70C86.5685 62 100 48.5685 100 32V30C100 13.4315 113.431 0 130 0H170C186.569 0 200 13.4315 200 30V70Z" fill="black"/>
</svg>
